<svg width="41" height="26" viewBox="0 0 41 26" fill="none" xmlns="http://www.w3.org/2000/svg">
<path d="M2.41632 0.673828H39.0291C39.992 0.673828 40.7726 1.44971 40.7726 2.40664V24.067C40.7726 25.0244 39.992 25.7998 39.0291 25.7998H2.41632C1.45341 25.7998 0.672852 25.0244 0.672852 24.067V2.40664C0.672852 1.44971 1.45341 0.673828 2.41632 0.673828Z" fill="#5870BE"/>
<path d="M18.2131 13.2332C18.2131 8.27534 22.4217 4.25732 27.6137 4.25732C32.8056 4.25732 37.0129 8.27534 37.0129 13.2332C37.0129 18.1891 32.8056 22.2086 27.6137 22.2086C22.4217 22.2086 18.2131 18.1891 18.2131 13.2332Z" fill="#FFAF38"/>
<path d="M13.2105 22.2066C8.02708 22.2066 3.81006 18.1803 3.81006 13.2317C3.81006 8.28364 8.02708 4.25781 13.2105 4.25781C16.1998 4.25781 18.9436 5.56901 20.7383 7.85568H19.4817V8.45589H21.1705C21.297 8.64718 21.4167 8.84481 21.5272 9.04439H18.8534V9.64461H21.8298C21.9216 9.84517 22.0045 10.0467 22.0775 10.2443H18.2249V10.8445H22.2746C22.4982 11.619 22.6109 12.4217 22.6109 13.2317C22.6109 14.2609 22.4302 15.2695 22.0736 16.2299H18.2249V16.8296H21.8251C21.7305 17.036 21.6298 17.2341 21.5269 17.4201H18.8534V18.0198H21.1631C21.0241 18.2296 20.8781 18.4307 20.7304 18.6185H19.4817V19.2183H20.2144C18.4319 21.118 15.8788 22.2066 13.2105 22.2066Z" fill="#E63737"/>
<path d="M2.74154 10.5176L3.36754 10.5943L4.35693 14.3644L4.40769 14.3707L6.3622 10.9611L6.98821 11.0378L6.40686 15.3625L5.91621 15.3024L6.3579 12.0166L6.3156 12.0115L4.52039 15.1314L4.04666 15.0734L3.13483 11.6218L3.09253 11.6166L2.65085 14.9024L2.1602 14.8423L2.74154 10.5176ZM7.88985 15.6215C7.684 15.5963 7.50239 15.5347 7.34502 15.4367C7.18784 15.3373 7.06983 15.2076 6.99101 15.0477C6.91237 14.8864 6.88725 14.7002 6.91564 14.489C6.94061 14.3032 6.99752 14.157 7.08635 14.0506C7.17538 13.9427 7.28567 13.8632 7.41722 13.8121C7.54878 13.7609 7.69076 13.7282 7.84315 13.714C7.99714 13.6985 8.15089 13.6902 8.3044 13.6889C8.5052 13.6878 8.66778 13.6884 8.79214 13.6907C8.91811 13.6919 9.01147 13.6797 9.07222 13.6542C9.13437 13.6289 9.17085 13.5761 9.18163 13.4959L9.1839 13.479C9.21191 13.2706 9.17657 13.1018 9.07789 12.9723C8.98061 12.8431 8.81707 12.7644 8.58725 12.7362C8.34897 12.707 8.15516 12.7362 8.0058 12.8238C7.85645 12.9114 7.74633 13.011 7.67545 13.1225L7.22442 12.8955C7.33551 12.7088 7.46893 12.5692 7.62468 12.4766C7.78204 12.3829 7.94753 12.3244 8.12118 12.3013C8.29643 12.277 8.46582 12.2749 8.62937 12.2949C8.73371 12.3077 8.85185 12.335 8.98379 12.377C9.11734 12.4176 9.24245 12.4838 9.35912 12.5753C9.4772 12.6671 9.56823 12.7949 9.6322 12.9587C9.69616 13.1225 9.71083 13.3332 9.6762 13.5908L9.38894 15.7279L8.88983 15.6667L8.94887 15.2275L8.92349 15.2244C8.88019 15.2906 8.81367 15.359 8.72393 15.4296C8.63419 15.5002 8.51997 15.5556 8.38128 15.5958C8.24258 15.6361 8.07877 15.6446 7.88985 15.6215ZM8.02616 15.1831C8.22355 15.2073 8.39512 15.189 8.54088 15.1281C8.68805 15.0675 8.80441 14.9801 8.88996 14.8661C8.97692 14.7523 9.02948 14.6278 9.04765 14.4926L9.10897 14.0365C9.08441 14.0592 9.03476 14.0768 8.96002 14.0891C8.88687 14.1001 8.80273 14.1077 8.70759 14.1118C8.61406 14.1147 8.52283 14.1164 8.4339 14.1169C8.34657 14.1162 8.27564 14.1161 8.22112 14.1166C8.08913 14.1176 7.96419 14.1302 7.84629 14.1544C7.72999 14.1774 7.63228 14.2219 7.55316 14.2881C7.47564 14.353 7.42837 14.4488 7.41134 14.5755C7.38806 14.7486 7.43461 14.8874 7.55099 14.9918C7.66897 15.095 7.82736 15.1588 8.02616 15.1831ZM12.4926 13.5495L12.0272 13.6213C12.009 13.5432 11.9772 13.4656 11.9317 13.3885C11.8877 13.3101 11.8224 13.242 11.7356 13.1841C11.6488 13.1263 11.5327 13.0885 11.3875 13.0707C11.1887 13.0463 11.0169 13.0718 10.8721 13.147C10.7288 13.2211 10.6479 13.3278 10.6291 13.4672C10.6125 13.591 10.6444 13.6944 10.725 13.7773C10.8056 13.8601 10.9386 13.9372 11.1239 14.0086L11.5902 14.1859C11.8711 14.2919 12.0731 14.4261 12.196 14.5885C12.3191 14.7496 12.3654 14.9434 12.3349 15.1701C12.31 15.3559 12.2341 15.5154 12.1072 15.6487C11.9818 15.7822 11.8182 15.8795 11.6165 15.9406C11.4149 16.0018 11.1878 16.0169 10.9354 15.986C10.6041 15.9454 10.3395 15.84 10.1417 15.6698C9.94389 15.4996 9.83462 15.273 9.8139 14.99L10.3035 14.9298C10.3252 15.1099 10.3929 15.2513 10.5066 15.3539C10.6218 15.4567 10.7816 15.5207 10.986 15.5457C11.2187 15.5742 11.41 15.5476 11.56 15.4658C11.7116 15.3828 11.7968 15.2716 11.8155 15.1322C11.8306 15.0196 11.8038 14.9204 11.7351 14.8347C11.6666 14.7476 11.5531 14.675 11.3946 14.617L10.8703 14.424C10.5822 14.3171 10.3784 14.1813 10.2586 14.0163C10.1405 13.8502 10.0965 13.6552 10.1266 13.4314C10.1512 13.2483 10.2244 13.0927 10.3463 12.9646C10.4695 12.8366 10.6261 12.7434 10.8159 12.6851C11.0072 12.627 11.217 12.6119 11.4454 12.6399C11.7669 12.6793 12.0098 12.7806 12.1742 12.9438C12.3399 13.1072 12.4461 13.3091 12.4926 13.5495ZM14.3668 13.0407L14.3101 13.463L12.6266 13.2568L12.6834 12.8345L14.3668 13.0407ZM13.2785 12.1175L13.7776 12.1786L13.3621 15.2701C13.3431 15.4109 13.3494 15.519 13.3808 15.5944C13.4138 15.6686 13.4612 15.7216 13.5228 15.7535C13.586 15.7841 13.6543 15.8039 13.7276 15.8129C13.7826 15.8196 13.8281 15.8223 13.8641 15.821C13.9003 15.8183 13.9293 15.8161 13.951 15.8145L13.9923 16.2746C13.9568 16.2831 13.9078 16.29 13.8455 16.2953C13.783 16.3019 13.7052 16.2995 13.6122 16.2881C13.4712 16.2709 13.3371 16.2237 13.2098 16.1466C13.084 16.0696 12.9851 15.9638 12.9129 15.829C12.8421 15.6944 12.8194 15.5328 12.8448 15.3441L13.2785 12.1175ZM15.553 16.5516C15.24 16.5133 14.9792 16.4112 14.7708 16.2455C14.5639 16.0785 14.4159 15.8629 14.3267 15.5987C14.2392 15.3332 14.2177 15.0344 14.2624 14.7021C14.307 14.3699 14.407 14.0845 14.5623 13.846C14.7193 13.6062 14.9165 13.4286 15.1542 13.3132C15.3934 13.1965 15.6597 13.1561 15.953 13.1921C16.1222 13.2128 16.2854 13.2614 16.4428 13.3379C16.6002 13.4145 16.7381 13.5244 16.8564 13.6676C16.9749 13.8095 17.0604 13.9888 17.113 14.2056C17.1655 14.4224 17.1715 14.6822 17.1308 14.9848L17.1024 15.196L14.5984 14.8893L14.6563 14.4585L16.6527 14.703C16.6773 14.52 16.6626 14.3522 16.6086 14.1997C16.556 14.0473 16.4683 13.9213 16.3455 13.8219C16.2242 13.7226 16.0733 13.6619 15.8928 13.6397C15.694 13.6154 15.5154 13.6436 15.3569 13.7243C15.2 13.8039 15.0723 13.917 14.9738 14.0638C14.8752 14.2105 14.8139 14.3733 14.7899 14.5521L14.7513 14.8393C14.7183 15.0843 14.7327 15.2971 14.7944 15.4778C14.8577 15.6573 14.9595 15.8007 15.0999 15.908C15.2404 16.014 15.4115 16.0793 15.6131 16.104C15.7443 16.12 15.8651 16.1162 15.9758 16.0926C16.0881 16.0677 16.188 16.0227 16.2756 15.9576C16.3633 15.8911 16.4359 15.8041 16.4934 15.6966L16.9574 15.8909C16.8847 16.048 16.7801 16.1811 16.6436 16.2903C16.5073 16.3981 16.3464 16.4757 16.1609 16.5231C15.9755 16.5691 15.7729 16.5786 15.553 16.5516ZM17.2197 16.6871L17.6557 13.4436L18.1379 13.5027L18.072 13.9926L18.1059 13.9967C18.1866 13.8435 18.3113 13.7264 18.4798 13.6454C18.6484 13.5645 18.8299 13.5359 19.0245 13.5598C19.0611 13.5642 19.1069 13.5706 19.1617 13.5787C19.2165 13.5868 19.2578 13.5941 19.2856 13.6003L19.2175 14.1071C19.2011 14.1008 19.1632 14.0897 19.1037 14.0739C19.0458 14.0568 18.9837 14.0442 18.9175 14.036C18.7595 14.0167 18.6141 14.0325 18.4811 14.0835C18.3498 14.1332 18.2404 14.2114 18.153 14.318C18.0671 14.4234 18.0144 14.5493 17.9947 14.6957L17.7188 16.7483L17.2197 16.6871ZM22.9415 14.3659L22.417 14.3016C22.4063 14.1472 22.3698 14.0082 22.3076 13.8847C22.2468 13.7613 22.1666 13.6542 22.067 13.5633C21.969 13.4711 21.8564 13.3972 21.7292 13.3416C21.602 13.2859 21.4664 13.2493 21.3226 13.2317C21.0604 13.1996 20.8139 13.2366 20.5832 13.3429C20.354 13.4493 20.1593 13.6236 19.9992 13.8659C19.8405 14.1083 19.7359 14.4168 19.6856 14.7912C19.6353 15.1657 19.6548 15.4894 19.7443 15.7622C19.8351 16.0352 19.9774 16.2508 20.1711 16.409C20.3662 16.5675 20.5949 16.6627 20.8571 16.6949C21.0009 16.7125 21.1417 16.7097 21.2796 16.6865C21.4174 16.6633 21.5458 16.6197 21.6648 16.5555C21.7853 16.4902 21.8914 16.4051 21.9828 16.3004C22.0759 16.1945 22.148 16.0688 22.199 15.9234L22.7235 15.9876C22.6543 16.2038 22.5558 16.3928 22.428 16.5546C22.3002 16.7164 22.1506 16.849 21.979 16.9525C21.8076 17.0546 21.6211 17.1254 21.4195 17.1651C21.2192 17.205 21.0098 17.2115 20.7912 17.1848C20.4219 17.1395 20.1055 17.0092 19.8421 16.7937C19.5787 16.5783 19.3868 16.2944 19.2665 15.9419C19.1462 15.5895 19.1167 15.1852 19.178 14.7291C19.2393 14.2729 19.3748 13.8889 19.5844 13.5768C19.794 13.2648 20.0548 13.0363 20.3666 12.8913C20.6785 12.7464 21.0191 12.6965 21.3885 12.7418C21.607 12.7685 21.8079 12.8254 21.9911 12.9122C22.1758 12.9992 22.3374 13.1135 22.476 13.2549C22.6149 13.395 22.7247 13.5587 22.8056 13.7461C22.8866 13.932 22.9319 14.1386 22.9415 14.3659ZM23.8208 17.5731C23.6149 17.5478 23.4333 17.4862 23.2759 17.3883C23.1187 17.2889 23.0007 17.1592 22.9219 16.9993C22.8433 16.838 22.8182 16.6518 22.8465 16.4406C22.8715 16.2548 22.9284 16.1086 23.0173 16.0022C23.1063 15.8943 23.2166 15.8148 23.3481 15.7637C23.4797 15.7125 23.6217 15.6798 23.7741 15.6656C23.9281 15.6501 24.0818 15.6417 24.2353 15.6405C24.4361 15.6394 24.5987 15.64 24.7231 15.6423C24.849 15.6434 24.9424 15.6313 25.0031 15.6058C25.0653 15.5805 25.1018 15.5277 25.1125 15.4475L25.1148 15.4306C25.1428 15.2222 25.1075 15.0533 25.0088 14.9239C24.9115 14.7947 24.748 14.7159 24.5182 14.6878C24.2799 14.6586 24.0861 14.6878 23.9367 14.7754C23.7874 14.863 23.6772 14.9626 23.6064 15.0741L23.1553 14.8471C23.2664 14.6604 23.3998 14.5207 23.5556 14.4282C23.7129 14.3344 23.8784 14.276 24.0521 14.2529C24.2273 14.2286 24.3967 14.2265 24.5603 14.2465C24.6646 14.2593 24.7828 14.2866 24.9147 14.3285C25.0482 14.3692 25.1734 14.4354 25.29 14.5269C25.4081 14.6187 25.4991 14.7464 25.5631 14.9102C25.6271 15.0741 25.6417 15.2848 25.6071 15.5424L25.3198 17.6794L24.8207 17.6183L24.8798 17.1791L24.8544 17.176C24.8111 17.2422 24.7446 17.3106 24.6548 17.3812C24.5651 17.4517 24.4509 17.5072 24.3122 17.5474C24.1735 17.5877 24.0097 17.5962 23.8208 17.5731ZM23.9571 17.1347C24.1545 17.1589 24.326 17.1406 24.4718 17.0797C24.619 17.019 24.7353 16.9317 24.8209 16.8177C24.9078 16.7038 24.9604 16.5793 24.9786 16.4442L25.0399 15.9881C25.0153 16.0108 24.9657 16.0283 24.8909 16.0407C24.8178 16.0517 24.7336 16.0593 24.6385 16.0634C24.545 16.0662 24.4537 16.0679 24.3648 16.0685C24.2775 16.0678 24.2065 16.0677 24.152 16.0682C24.02 16.0692 23.8951 16.0818 23.7772 16.106C23.6609 16.1289 23.5632 16.1735 23.4841 16.2396C23.4066 16.3046 23.3593 16.4004 23.3422 16.5271C23.319 16.7002 23.3655 16.839 23.4819 16.9434C23.5999 17.0466 23.7583 17.1104 23.9571 17.1347ZM25.7842 17.7363L26.2202 14.4928L26.7024 14.5518L26.6365 15.0417L26.6703 15.0459C26.7511 14.8927 26.8758 14.7756 27.0443 14.6946C27.2128 14.6136 27.3944 14.5851 27.589 14.6089C27.6256 14.6134 27.6713 14.6197 27.7261 14.6279C27.7809 14.636 27.8223 14.6432 27.8501 14.6495L27.7819 15.1563C27.7656 15.15 27.7277 15.1389 27.6682 15.123C27.6103 15.1059 27.5482 15.0933 27.4819 15.0852C27.324 15.0659 27.1786 15.0817 27.0456 15.1326C26.9143 15.1824 26.8049 15.2606 26.7174 15.3672C26.6316 15.4726 26.5789 15.5985 26.5592 15.7449L26.2833 17.7975L25.7842 17.7363ZM28.672 18.1588C28.4013 18.1256 28.1715 18.0281 27.9826 17.8661C27.7939 17.7028 27.6579 17.4886 27.5745 17.2237C27.4914 16.9574 27.4729 16.6525 27.5191 16.3089C27.5649 15.9683 27.6631 15.6798 27.8138 15.4435C27.9646 15.2073 28.1534 15.0337 28.3804 14.9227C28.6075 14.8117 28.8577 14.7729 29.1313 14.8064C29.3427 14.8324 29.5051 14.888 29.6183 14.9734C29.7331 15.0576 29.817 15.148 29.8699 15.2447C29.9244 15.3401 29.9662 15.4182 29.9953 15.479L30.0376 15.4841L30.2522 13.8877L30.7513 13.9489L30.17 18.2736L29.6878 18.2145L29.7548 17.7162L29.6956 17.7089C29.651 17.7635 29.5888 17.8318 29.509 17.9136C29.4294 17.994 29.3221 18.0617 29.1872 18.1167C29.0524 18.1703 28.8807 18.1843 28.672 18.1588ZM28.7999 17.7194C29.0001 17.7439 29.1763 17.7125 29.3285 17.6253C29.4808 17.5366 29.6055 17.4038 29.7023 17.2268C29.7994 17.0484 29.8644 16.8367 29.8973 16.5917C29.9299 16.3496 29.9231 16.1334 29.877 15.9431C29.8311 15.7515 29.7459 15.5965 29.6214 15.4782C29.497 15.3585 29.3333 15.2863 29.1303 15.2614C28.9188 15.2355 28.7353 15.2681 28.5797 15.3592C28.4258 15.4491 28.3011 15.5819 28.2058 15.7577C28.1122 15.9323 28.05 16.1336 28.0193 16.3616C27.9883 16.5925 27.9953 16.8066 28.0405 17.0039C28.0872 17.1999 28.1729 17.3621 28.2975 17.4904C28.4238 17.6175 28.5912 17.6938 28.7999 17.7194Z" fill="white"/>
</svg>
