<svg width="41" height="26" viewBox="0 0 41 26" fill="none" xmlns="http://www.w3.org/2000/svg">
<path d="M2.32594 0.835449H38.6887C39.6451 0.835449 40.4205 1.61134 40.4205 2.56875V24.2287C40.4205 25.1856 39.6451 25.9615 38.6887 25.9615H2.32594C1.36954 25.9615 0.594482 25.1856 0.594482 24.2287V2.56875C0.594482 1.61134 1.36954 0.835449 2.32594 0.835449Z" fill="#F1F1F1"/>
<path d="M1.0221 25.3705L1.02235 25.3691C0.746067 25.0533 0.593994 24.6483 0.593994 24.2291V2.56875C0.593994 1.6128 1.37097 0.834961 2.32596 0.834961H38.6884C39.1272 0.834961 39.5457 0.99941 39.8671 1.29854L1.0221 25.3705Z" fill="white" fill-opacity="0.729412"/>
<path d="M15.9299 18.7856L17.2866 16.4369L16.5282 10.7964H18.3825L18.6817 14.1347L20.4961 10.7964H22.4096L18.0035 18.7856H15.9299ZM10.117 14.5719C10.4033 13.1992 11.7882 12.7634 13.8461 12.7634C13.9687 12.153 13.5612 12.0002 12.8688 12.0227C12.175 12.0446 11.3394 12.2847 11.0957 12.415L11.2582 11.0428C11.7675 10.933 12.4613 10.6944 13.3368 10.6944C14.6198 10.672 16.0474 11.0633 15.7211 12.6551L14.9268 16.4023H13.0725L13.1936 15.8348C12.7952 16.2525 12.1427 16.5106 11.5371 16.5106C10.6568 16.5106 9.87563 15.9651 10.117 14.5719ZM12.0126 14.4845C11.7469 14.9203 12.0937 15.2907 12.5013 15.2687C12.9706 15.2477 13.378 15.0286 13.48 14.5275C13.4993 14.3538 13.5406 14.2015 13.5819 14.0278C13.418 14.0278 13.2762 14.0278 13.1125 14.0278C12.7862 14.0278 12.2163 14.1142 12.0126 14.4845ZM3.73022 16.4023L5.26335 9.23438H8.72563C9.74043 9.23438 10.9216 9.99757 10.5695 11.6743C10.2589 13.1548 9.09827 14.0278 7.70955 14.0278H6.25885L5.7611 16.4023H3.73022ZM6.54894 12.6551H7.50189C8.02034 12.6551 8.53867 12.2193 8.6625 11.6743C8.80818 11.1302 8.47682 10.6944 7.97906 10.6944H6.98484L6.54894 12.6551Z" fill="#3284AE"/>
<path d="M28.1369 14.5714C28.4257 13.1982 29.8294 12.7639 31.9124 12.7639C32.0568 12.1525 31.6443 12.0012 30.9431 12.0232C30.2419 12.0441 29.3963 12.2842 29.1282 12.4145L29.2931 11.0423C29.8294 10.933 30.5306 10.6944 31.4174 10.6944C32.7167 10.6719 34.1398 11.0633 33.8097 12.6546L33.0054 16.4013H31.1493L31.273 15.8352C30.8612 16.2525 30.1956 16.5106 29.5794 16.5106C28.6838 16.5106 27.8925 15.9655 28.1369 14.5714ZM30.0562 14.484C29.7881 14.9198 30.1593 15.2902 30.5718 15.2682C31.0462 15.2472 31.438 15.0281 31.5411 14.5284C31.5824 14.3537 31.603 14.201 31.6443 14.0278C31.4999 14.0278 31.3349 14.0278 31.1905 14.0278C30.8399 14.0278 30.2624 14.1137 30.0562 14.484ZM33.8626 16.4013L35.3978 9.21143H37.3029L35.7484 16.4013H33.8626ZM21.7512 16.4013L23.2813 9.23485H26.7345C27.727 9.23485 28.9257 9.99658 28.5739 11.6738C28.2645 13.1553 27.107 14.0278 25.7006 14.0278H24.2738L23.7569 16.4013H21.7512ZM24.5638 12.6546H25.4931C26.0113 12.6546 26.5488 12.2188 26.6726 11.6738C26.7963 11.1297 26.4869 10.6944 25.9702 10.6944H24.9776L24.5638 12.6546Z" fill="#3CA9C7"/>
</svg>
