<svg width="41" height="26" viewBox="0 0 41 26" fill="none" xmlns="http://www.w3.org/2000/svg">
<path d="M1.83712 0.872559H38.4587C39.4217 0.872559 40.2026 1.64844 40.2026 2.60537V24.2677C40.2026 25.2246 39.4217 26 38.4587 26H1.83712C0.873945 26 0.0932617 25.2246 0.0932617 24.2677V2.60537C0.0932617 1.64844 0.873945 0.872559 1.83712 0.872559Z" fill="#353A40"/>
<path d="M23.8452 17.4261C23.5758 17.2992 23.358 17.0962 23.1917 16.8205C23.024 16.5448 22.9402 16.1988 22.9402 15.7831C22.9402 15.2033 23.1066 14.7515 23.4366 14.4279C23.7679 14.1054 24.2281 13.9444 24.8199 13.9444C25.4245 13.9444 25.8912 14.1029 26.2186 14.4206C26.5461 14.7383 26.7098 15.1824 26.7098 15.7548C26.7098 16.1695 26.6389 16.5101 26.4958 16.7761C26.3528 17.042 26.1451 17.2475 25.8757 17.3963C25.6049 17.5442 25.2672 17.6179 24.8637 17.6179C24.4538 17.6179 24.1135 17.5539 23.8452 17.4261ZM24.2707 15.0101C24.134 15.1677 24.0644 15.4259 24.0644 15.7879C24.0644 16.1461 24.1328 16.4043 24.2694 16.5609C24.4061 16.7185 24.5917 16.7971 24.8263 16.7971C25.0687 16.7971 25.2557 16.7195 25.3872 16.5658C25.5199 16.413 25.5856 16.1373 25.5856 15.7401C25.5856 15.4054 25.5174 15.1614 25.3781 15.0062C25.2402 14.8525 25.0533 14.7749 24.8173 14.7749C24.5904 14.7749 24.4087 14.8539 24.2707 15.0101ZM13.8942 17.5822C13.6839 17.5578 13.5086 17.5095 13.3682 17.4368C13.2276 17.3656 13.0987 17.2636 12.9826 17.1304C12.8666 16.9991 12.7867 16.8625 12.7429 16.7219C12.6732 16.4955 12.6385 16.2949 12.6385 16.1212V14.0049H13.76V16.172C13.76 16.3652 13.8154 16.5165 13.9264 16.6258C14.0359 16.7341 14.1881 16.7883 14.384 16.7883C14.5773 16.7883 14.7295 16.7356 14.8391 16.6282C14.9487 16.5204 15.004 16.3677 15.004 16.172V14.0049H16.1257V16.1212C16.1257 16.332 16.0922 16.5287 16.0251 16.7161C15.9581 16.903 15.8536 17.0655 15.7106 17.2045C15.5675 17.3446 15.4167 17.4432 15.2594 17.4998C15.0415 17.5783 14.7785 17.6179 14.4729 17.6179C14.2963 17.6179 14.103 17.6057 13.8942 17.5822ZM29.7432 17.5578L28.3806 15.6069V17.5578H27.3235V14.0049H28.3729L29.7432 15.97V14.0049H30.803V17.5578H29.7432ZM19.2971 17.5578L17.9345 15.6069V17.5578H16.8772V14.0049H17.9279L19.2971 15.97V14.0049H20.3568V17.5578H19.2971ZM21.1496 17.549V14.0024H22.2802V17.549H21.1496ZM12.5598 12.5707C12.3213 12.3384 12.186 12.0427 12.155 11.6835L13.225 11.6182C13.2483 11.788 13.2947 11.9173 13.3656 12.0061C13.4815 12.1501 13.6479 12.2228 13.8618 12.2228C14.023 12.2228 14.1468 12.1857 14.2332 12.112C14.3209 12.0378 14.3634 11.9529 14.3634 11.8558C14.3634 11.765 14.3221 11.6811 14.2396 11.6084C14.1572 11.5357 13.965 11.4683 13.6634 11.403C13.1709 11.2946 12.8189 11.1507 12.6088 10.9711C12.3973 10.7925 12.2917 10.5636 12.2917 10.2855C12.2917 10.1035 12.3458 9.93122 12.4541 9.76872C12.5624 9.60622 12.7249 9.47837 12.9428 9.38566C13.1606 9.29245 13.4584 9.24658 13.8374 9.24658C14.3028 9.24658 14.6573 9.33051 14.9009 9.50033C15.1446 9.66917 15.2903 9.9361 15.3367 10.305L14.277 10.3655C14.2487 10.2055 14.1894 10.0898 14.0991 10.0171C14.0088 9.94439 13.8851 9.90779 13.7252 9.90779C13.595 9.90779 13.497 9.93463 13.43 9.9888C13.3642 10.043 13.3307 10.1093 13.3307 10.1859C13.3307 10.2425 13.3591 10.2943 13.4133 10.3397C13.4661 10.3865 13.5924 10.4294 13.791 10.4699C14.2821 10.5734 14.6341 10.6783 14.8469 10.7837C15.0595 10.8896 15.2143 11.0214 15.3109 11.178C15.4076 11.3342 15.4553 11.5098 15.4553 11.7031C15.4553 11.931 15.3909 12.1413 15.2619 12.3335C15.133 12.5253 14.9525 12.6717 14.7205 12.7717C14.4897 12.8698 14.197 12.9206 13.8451 12.9206C13.2263 12.9206 12.7983 12.8035 12.5598 12.5707ZM29.7432 12.8601L28.3806 10.9081V12.8601H27.3235V9.30709H28.3729L29.7432 11.2727V9.30709H30.803V12.8601H29.7432ZM25.6862 12.8601L25.0855 11.7733C25.0081 11.6333 24.941 11.542 24.8818 11.5001C24.8006 11.4449 24.7077 11.4176 24.6059 11.4176H24.5066V12.8601H23.3773V9.30709H25.2504C25.5985 9.30709 25.8641 9.33539 26.0472 9.39444C26.2315 9.45251 26.3797 9.56084 26.4919 9.71699C26.6041 9.87559 26.6609 10.0664 26.6609 10.2928C26.6609 10.4909 26.617 10.6607 26.5319 10.8037C26.4455 10.9462 26.327 11.0619 26.1762 11.1507C26.0807 11.2073 25.9492 11.2541 25.7817 11.2922C25.9157 11.3351 26.0136 11.3795 26.0743 11.4225C26.1155 11.4522 26.1762 11.5137 26.2535 11.6099C26.3321 11.7045 26.385 11.7782 26.4121 11.8299L26.9561 12.8601H25.6862ZM24.5066 10.7457H24.981C25.0313 10.7457 25.1306 10.731 25.2788 10.6978C25.3523 10.6832 25.4129 10.6461 25.4607 10.5871C25.5083 10.5265 25.5315 10.4577 25.5315 10.3802C25.5315 10.266 25.4941 10.1772 25.4194 10.1157C25.3459 10.0552 25.2053 10.0244 25.0003 10.0244H24.5066V10.7457ZM19.6889 12.8601V9.30709H22.7017V10.0654H20.8157V10.63H22.5664V11.3551H20.8157V12.0554H22.7572V12.8601H19.6889ZM16.9121 12.8601V10.1845H15.7659V9.30709H19.1836V10.1845H18.0363V12.8601H16.9121ZM8.67807 12.8601V9.30709H11.6909V10.0654H9.80481V10.63H11.5543V11.3551H9.80481V12.0554H11.7451V12.8601H8.67807ZM6.40911 12.8601L5.77105 10.6227L5.13541 12.8601H4.0332L3.22363 9.30709H4.29108L4.67523 11.2961L5.23853 9.30709H6.30215L6.86687 11.2937L7.25101 9.30709H8.31322L7.51145 12.8601H6.40911Z" fill="#ECD345"/>
<path d="M35.8159 17.6203V9.24512H37.0729V17.6203H35.8159ZM32.6858 17.6203V9.24512H33.9428V17.6203H32.6858Z" fill="#ECD345"/>
</svg>
