<svg width="191" height="26" viewBox="0 0 191 26" fill="none" xmlns="http://www.w3.org/2000/svg">
<path d="M15.307 12.1263L15.3314 13.1101C17.612 13.4634 19.516 15.709 19.516 18.52C19.516 20.2076 18.9523 21.6932 17.8856 22.7558C16.8208 23.8165 15.2102 24.5 13.032 24.5H0.5V1.488H12.636C14.8122 1.488 16.408 2.1795 17.4571 3.2042C18.5089 4.23138 19.048 5.62839 19.048 7.108C19.048 9.90301 17.3347 11.7079 15.307 12.1263ZM4.612 10.6V11.1H5.112H11.52C12.489 11.1 13.3212 10.7956 13.9153 10.2345C14.5112 9.67175 14.828 8.8874 14.828 8.008C14.828 7.1294 14.5119 6.33792 13.9188 5.76684C13.3263 5.19627 12.4936 4.88 11.52 4.88H5.112H4.612V5.38V10.6ZM4.612 20.572V21.072H5.112H11.7C12.7577 21.072 13.6638 20.7875 14.3111 20.206C14.9654 19.6182 15.296 18.7803 15.296 17.8C15.296 16.9238 14.9816 16.0887 14.3545 15.4724C13.7252 14.854 12.8185 14.492 11.7 14.492H5.112H4.612V14.992V20.572ZM93.208 9.34V24.5H89.096V1.488H93.5995L104.574 16.3688L105.476 17.5924V16.072V1.488H109.588V12.994V24.5H105.41L94.1116 9.04492L93.208 7.8088V9.34ZM151.384 20.5V21H151.884H163.264V24.5H147.272V1.488H163.264V4.988H151.884H151.384V5.488V10.564V11.064H151.884H163.012V14.564H151.884H151.384V15.064V20.5ZM184.969 16.1102L189.924 24.5H185.227L180.654 16.2261L180.511 15.968H180.216H176.472H175.972V16.468V24.5H171.86V1.488H182.592C184.982 1.488 186.865 2.26809 188.149 3.53927C189.433 4.81107 190.156 6.61249 190.156 8.72799C190.156 12.7184 187.677 14.8045 185.285 15.3694L184.624 15.5254L184.969 16.1102ZM175.972 11.968V12.468H176.472H181.836C182.959 12.468 183.982 12.1328 184.733 11.4818C185.491 10.8242 185.936 9.87385 185.936 8.72799C185.936 7.58215 185.491 6.63177 184.733 5.97424C183.982 5.32315 182.959 4.988 181.836 4.988H176.472H175.972V5.488V11.968ZM50.908 13.012C50.908 19.9652 45.8466 24.932 38.844 24.932C31.8784 24.932 26.816 19.9661 26.816 13.012C26.816 6.05787 31.8784 1.092 38.844 1.092C45.8466 1.092 50.908 6.05881 50.908 13.012ZM31.072 13.012C31.072 15.3489 31.817 17.444 33.1749 18.9614C34.5375 20.4841 36.4927 21.396 38.844 21.396C41.1949 21.396 43.1585 20.4844 44.5299 18.9627C45.897 17.4459 46.652 15.3505 46.652 13.012C46.652 10.6562 45.8974 8.56022 44.5294 7.04716C43.1571 5.5294 41.1933 4.62799 38.844 4.62799C36.4944 4.62799 34.5389 5.5297 33.1754 7.04847C31.8166 8.56209 31.072 10.6579 31.072 13.012ZM79.78 15.388C79.78 18.2784 78.9286 20.6472 77.2521 22.2943C75.5751 23.9419 73.0068 24.932 69.444 24.932C65.8824 24.932 63.3135 23.9335 61.6359 22.2853C59.9585 20.6374 59.108 18.277 59.108 15.424V1.488H63.292V15.244C63.292 17.0127 63.8066 18.5613 64.8659 19.6708C65.9288 20.7841 67.4837 21.396 69.444 21.396C71.4045 21.396 72.9515 20.7839 74.0058 19.669C75.0557 18.5588 75.56 17.0103 75.56 15.244V1.488H79.78V15.388ZM135.927 18.0594L139.401 19.7394C137.697 22.4497 134.86 24.932 130.068 24.932C123.12 24.932 117.788 20.0925 117.788 13.012C117.788 5.93152 123.12 1.092 130.068 1.092C134.866 1.092 137.734 3.54871 139.406 6.24978L135.922 7.96342C134.758 6.07634 132.573 4.62799 130.068 4.62799C125.413 4.62799 122.044 8.22336 122.044 13.012C122.044 17.8006 125.413 21.396 130.068 21.396C132.572 21.396 134.761 19.9791 135.927 18.0594Z" fill="#D9D9D9" stroke="black"/>
</svg>
